<?xml version="1.0" encoding="utf-8"?>
<!-- Generator: Adobe Illustrator 21.0.0, SVG Export Plug-In . SVG Version: 6.00 Build 0)  -->
<svg version="1.1" id="Layer_1" xmlns="http://www.w3.org/2000/svg" xmlns:xlink="http://www.w3.org/1999/xlink" x="0px" y="0px"
	 viewBox="0 0 24 24" style="enable-background:new 0 0 24 24;" xml:space="preserve">
<title>Icons / 24px / Call</title>
<desc>Created with Sketch.</desc>
<g id="Mobile">
	<g id="Humano---Match-Perfil-Completo" transform="translate(-269.000000, -433.000000)">
		<g id="Icons-_x2F_-24px-_x2F_-Call" transform="translate(266.000000, 430.000000)">
			<path id="Fill-1" d="M23,18.4c-1.2,0-2.4-0.2-3.5-0.6c-0.4-0.1-0.7,0-1,0.2l-1.6,2c-2.8-1.3-5.5-3.9-6.9-6.8l2-1.7
				c0.3-0.3,0.4-0.7,0.2-1c-0.4-1.1-0.6-2.3-0.6-3.5c0-0.5-0.4-1-1-1H7.2C6.6,6,6,6.2,6,7c0,9.3,7.7,17,17,17c0.7,0,1-0.6,1-1.2
				v-3.5C24,18.8,23.5,18.4,23,18.4"/>
		</g>
	</g>
</g>
</svg>
