<?xml version="1.0" encoding="UTF-8"?>
<svg width="20px" height="20px" viewBox="0 0 20 20" version="1.1" xmlns="http://www.w3.org/2000/svg" xmlns:xlink="http://www.w3.org/1999/xlink">
    <!-- Generator: Sketch 51.3 (57544) - http://www.bohemiancoding.com/sketch -->
    <title>Fill 1</title>
    <desc>Created with Sketch.</desc>
    <defs></defs>
    <g id="Symbols" stroke="none" stroke-width="1" fill="none" fill-rule="evenodd">
        <g id="Icons-/-24px-/-Close" transform="translate(-2.000000, -2.000000)" fill="#FFFFFF">
            <path d="M15.5898,7 L11.9998,10.59 L8.4098,7 L6.9998,8.41 L10.5898,12 L6.9998,15.59 L8.4098,17 L11.9998,13.41 L15.5898,17 L16.9998,15.59 L13.4098,12 L16.9998,8.41 L15.5898,7 Z M11.9998,20 C7.5898,20 3.9998,16.41 3.9998,12 C3.9998,7.59 7.5898,4 11.9998,4 C16.4098,4 19.9998,7.59 19.9998,12 C19.9998,16.41 16.4098,20 11.9998,20 Z M11.9998,2 C6.4698,2 1.9998,6.47 1.9998,12 C1.9998,17.53 6.4698,22 11.9998,22 C17.5298,22 21.9998,17.53 21.9998,12 C21.9998,6.47 17.5298,2 11.9998,2 Z" id="Fill-1"></path>
        </g>
    </g>
</svg>