<?xml version="1.0" encoding="UTF-8"?>
<svg width="40px" height="36px" viewBox="0 0 40 36" version="1.1" xmlns="http://www.w3.org/2000/svg" xmlns:xlink="http://www.w3.org/1999/xlink">
    <!-- Generator: Sketch 51.3 (57544) - http://www.bohemiancoding.com/sketch -->
    <title>Path</title>
    <desc>Created with Sketch.</desc>
    <defs></defs>
    <g id="Mobile" stroke="none" stroke-width="1" fill="none" fill-rule="evenodd">
        <g id="Humano---Match-Search" transform="translate(-286.000000, -414.000000)" stroke="#FFFFFF" stroke-width="2">
            <path d="M315.501,415 C320.692,415 324.916,419.785 324.916,425.666 C324.916,426.023 324.899,426.386 324.868,426.742 L324.864,426.791 L324.863,426.833 C324.863,426.942 324.57,437.763 306.085,448.749 C296.477,443.04 291.814,437.421 289.591,433.686 C287.158,429.598 287.051,426.838 287.05,426.816 L287.05,426.781 L287.046,426.746 C287.015,426.383 287,426.02 287,425.666 C287,419.785 291.222,415 296.413,415 C300.583,415 303.629,416.871 304.99,420.269 L305.957,422.683 L306.924,420.269 C308.286,416.871 311.332,415 315.501,415" id="Path"></path>
        </g>
    </g>
</svg>