<svg xmlns="http://www.w3.org/2000/svg" xmlns:xlink="http://www.w3.org/1999/xlink" id="" class="logo home-logo"
          version="1.1" x="0" y="0" viewBox="0 0 612 186.7" xml:space="preserve" enable-background="new 0 0 612 186.7">
          <g class="wan">
            <path class="st0"
              d="M98.8 179.8c-11.3 0-22.8-6-28.5-15 -5.4 9-17.1 15-28.3 15 -19.8 0-32.9-13.5-32.9-33.7v-42.7h24.5V145c0 7.8 4.9 12.8 12.2 12.8s12-5 12-12.8v-41.7h24.5V145c0 7.8 5 12.8 12.5 12.8 7.1 0 11.8-5 11.8-12.8v-41.7h24.5v42.7C131.2 166.3 118.3 179.8 98.8 179.8z" />
            <path class="st0"
              d="M218.7 103.3v75.3h-24.8v-9.5c-5.1 6.7-12.8 10.4-22.1 10.4 -21.2 0-35.1-15.6-35.1-39 0-23 13.6-38.2 34.4-38.2 9.6-0.1 17.5 3.8 22.8 10.6v-9.8L218.7 103.3zM193.9 143.9v-5c-1-9.9-7.1-16.3-16-16.3 -9.8 0-16.3 7.7-16.3 18.8s6.5 18.8 16.3 18.8C186.8 160.1 192.9 153.6 193.9 143.9L193.9 143.9z" />
            <path class="st0"
              d="M304.7 131.2v47.5H280v-40.4c0-8.5-5-13.8-12.8-13.8 -8.4 0.1-13.8 5.9-14.8 14.3v39.8h-24.8v-75.3h24.8v12.2c5.3-8.6 13.9-13.2 24.9-13.2C293.8 102.4 304.7 113.5 304.7 131.2z" />
          </g>
          <g class="an">
            <path class="st0"
              d="M517.7 103.3v75.3h-24.8v-9.5c-5.1 6.7-12.8 10.4-22.1 10.4 -21.2 0-35.1-15.6-35.1-39 0-23 13.6-38.2 34.4-38.2 9.6-0.1 17.5 3.8 22.8 10.6v-9.8L517.7 103.3zM492.9 143.9v-5c-1-9.9-7.1-16.3-16-16.3 -9.8 0-16.3 7.7-16.3 18.8s6.5 18.8 16.3 18.8C485.8 160.1 491.9 153.6 492.9 143.9z" />
            <path class="st0"
              d="M603.7 131.2v47.5H579v-40.4c0-8.5-5-13.8-12.8-13.8 -8.3 0.1-13.8 5.9-14.8 14.3v39.8h-24.7v-75.3h24.8v12.2c5.3-8.6 13.9-13.2 24.9-13.2C592.8 102.4 603.7 113.5 603.7 131.2z" />
          </g>
          <g class="orejas">
            <title>
              Artboard 1
            </title>
            <path class="st0"
              d="M474.4 38.8c-3-5-13.9-22-28.3-29.7 -12.6-6.8-23.2-8.1-31.7-4 -8.9 4.3-13.4 13.5-15.9 22.3 -16.5-11.1-38.1-11.1-54.5 0.2 -2.5-8.9-7-18.2-16-22.5 -8.5-4.1-19.1-2.7-31.7 4 -14.3 7.8-25.2 24.7-28.2 29.8 -3.7 6.2-7.5 18.9-1.9 26.8 1.6 2.2 5 5.6 11.4 5.6 1.3 0 2.7-0.1 4-0.4 5.8-1.1 9.4-3.9 12.4-6.1 3.7-2.8 5.6-4.3 11.7-2.7l3.2-12.3c-12.1-3.2-18.2 1.5-22.7 4.9 -2.4 1.8-4.2 3.2-7 3.7 -0.9 0.2-1.8 0.3-2.6 0.1 -1-1.1-0.6-8.1 2.4-13 5.3-8.9 14.2-20.1 23.4-25 8.8-4.7 15.5-6 20.1-3.8 5.1 2.5 8.8 9.8 11 22.2 -1.5 2.6-2.3 5.4-2.3 8.4h10.3c0-6.1 12.5-17.8 29.7-17.8 7.8 0 15.4 2.3 21.8 6.6 4.9 3.4 8 7.8 8 11.1h10.3c-0.1-3-0.9-5.9-2.3-8.5 2.3-12.4 5.9-19.6 11-22.1 4.6-2.2 11.4-0.9 20.1 3.8 9.1 4.9 18 16.1 23.4 25 3 5 3.4 11.9 2.4 13 -0.9 0.2-1.8 0.2-2.6 0 -2.8-0.5-4.6-1.9-7-3.7 -4.5-3.4-10.5-8-22.7-4.9l3.2 12.4c6.1-1.6 8-0.2 11.7 2.7 3 2.2 6.6 5.1 12.4 6.1 1.3 0.3 2.7 0.4 4 0.4 6.5 0 9.9-3.3 11.4-5.6C481.9 57.7 478.1 44.9 474.4 38.8z" />
          </g>
          <g class="ojos">
            <title>
              Artboard 1
            </title>
            <path class="guino1 st0"
              d="M418.3 77.9c0 4-3.3 7.3-7.3 7.3s-7.3-3.3-7.3-7.3h-6.4c-0.2 7.5 5.7 13.8 13.3 14s13.8-5.7 14-13.3c0-0.2 0-0.5 0-0.7H418.3z" />
            <path class="st0"
              d="M331.5 85.2c-4 0-7.3-3.3-7.3-7.3h-6.4c-0.2 7.5 5.7 13.8 13.3 14s13.8-5.7 14-13.3c0-0.2 0-0.5 0-0.7h-6.4C338.8 81.9 335.5 85.2 331.5 85.2 331.5 85.2 331.5 85.2 331.5 85.2z" />
          </g>
          <rect class="guino2" x="397.4" y="77.9" width="27.2" height="6.2" />
          <g class="boca">
            <title>
              Artboard 1
            </title>
            <path class="st1"
              d="M411.1 127.5V145c0 8.9-5.7 14.7-14 14.7 -9 0-15-5.9-15-14.7v-16.9l8.7-8.7 0.1-0.1c5.8-5.8 6.1-14.8 0.7-20.2s-14.4-3.8-20.2 1.9l-0.1 0.1 -0.1-0.1c-5.8-5.8-14.8-7.3-20.2-1.9s-5 14.4 0.7 20.2l0.1 0.1 8.5 8.5V145c0 8.9-5.6 14.7-14.3 14.7s-14.6-5.9-14.6-14.7v-17.5h-21.9V146c0 20.3 13.3 33.7 32.9 33.7 11.9 0 23.7-6.3 28.9-15.7 5.4 9.4 17.3 15.7 29 15.7 19.6 0 32.6-13.4 32.6-33.7v-18.5H411.1z" />
          </g>
        </svg>