<?xml version="1.0" encoding="utf-8"?>
<!-- Generator: Adobe Illustrator 21.0.0, SVG Export Plug-In . SVG Version: 6.00 Build 0)  -->
<svg version="1.1" id="Layer_1" xmlns="http://www.w3.org/2000/svg" xmlns:xlink="http://www.w3.org/1999/xlink" x="0px" y="0px"
	 viewBox="0 0 400 120" style="enable-background:new 0 0 400 120;" xml:space="preserve">
<path id="Fill-1" d="M254.3,46.1v23.8c0,12.1-7.8,20.1-19,20.1c-12.2,0-20.3-8-20.3-20.1V46.8L226.8,35l0.1-0.1
	c7.8-7.8,8.2-20.2,1-27.5c-7.3-7.3-19.6-5.2-27.3,2.6l-0.1,0.1l-0.1-0.1c-7.8-7.8-20.1-9.9-27.3-2.6c-7.3,7.3-6.8,19.7,1,27.5
	L174,35l11.6,11.6v23.3C185.6,82,178,90,166.2,90c-11.8,0-19.8-8-19.8-20.1V46.1h-29.6v25.2c0,27.7,18,46,44.6,46
	c16.1,0,32.2-8.6,39.1-21.4c7.4,12.9,23.4,21.4,39.3,21.4c26.5,0,44.2-18.3,44.2-46V46.1H254.3z"/>
</svg>
