<?xml version="1.0" encoding="utf-8"?>
<!-- Generator: Adobe Illustrator 21.0.0, SVG Export Plug-In . SVG Version: 6.00 Build 0)  -->
<svg version="1.1" id="Layer_1" xmlns="http://www.w3.org/2000/svg" xmlns:xlink="http://www.w3.org/1999/xlink" x="0px" y="0px"
	 viewBox="0 0 75 70" style="enable-background:new 0 0 75 70;" xml:space="preserve">
<style type="text/css">
	.st0{fill:#FFFFFF;}
</style>
<path class="st0" d="M63.8,1C69.4,1,74,5.6,74,11.2v47.7C74,64.4,69.4,69,63.8,69H11.2C5.6,69,1,64.4,1,58.8V11.2
	C1,5.6,5.6,1,11.2,1H63.8 M63.8,0H11.2C5,0,0,5,0,11.2v47.7C0,65,5,70,11.2,70h52.7C70,70,75,65,75,58.8V11.2C75,5,70,0,63.8,0
	L63.8,0z"/>
</svg>
