<?xml version="1.0" encoding="utf-8"?>
<!-- Generator: Adobe Illustrator 21.0.0, SVG Export Plug-In . SVG Version: 6.00 Build 0)  -->
<svg version="1.1" id="Layer_1" xmlns="http://www.w3.org/2000/svg" xmlns:xlink="http://www.w3.org/1999/xlink" x="0px" y="0px"
	 viewBox="0 0 70 70" style="enable-background:new 0 0 70 70;" xml:space="preserve">
<style type="text/css">
	.st0{fill:#EFEFEF;stroke:#3C3C3C;stroke-width:3;stroke-linecap:round;}
	.st1{fill:#FF9F91;}
	.st2{fill:none;stroke:#FF9F91;stroke-width:3;stroke-linecap:round;}
	.st3{fill:#3C3C3C;}
	.st4{fill:none;stroke:#3C3C3C;stroke-width:3;stroke-linecap:round;}
</style>
<title>Icons / 70px / Cat / Color</title>
<desc>Created with Sketch.</desc>
<g id="Group-29" transform="translate(3.000000, 6.000000)">
	<path id="Stroke-19" class="st0" d="M54.5-0.3C51-0.3,45,10.2,42.2,15.3c-3.1-0.4-6.4-0.7-9.9-0.7c-3.4,0-6.7,0.3-9.9,0.7
		c-2.8-5.1-8.8-15.6-12.3-15.6c-4.6,0-6.8,26-6,34.8c1.4,16.3,13.4,24.1,28.2,24.1S59,50.7,60.5,34.5C61.2,25.7,59.1-0.3,54.5-0.3z"
		/>
	<path id="Stroke-1" class="st1" d="M10.3,7.3l7.9,9.4c0,0-4.7,0-9.4,3.1C8.7,19.9,8.7,15.2,10.3,7.3z"/>
	<path id="Stroke-3" class="st1" d="M54.3,7.3l-7.9,9.4c0,0,4.7,0,9.4,3.1C55.9,19.9,55.9,15.2,54.3,7.3z"/>
	<path id="Stroke-7" class="st2" d="M32.3,42.9c0,2.2,0,6.3-3.9,6.3c-1.7,0-3.2-1.1-3.7-2.6"/>
	<path id="Stroke-9" class="st2" d="M39.9,46.6c-0.5,1.5-2,2.6-3.7,2.6c-3.9,0-3.9-4.1-3.9-6.3"/>
	<path id="Fill-5" class="st1" d="M35.1,41.7c0,1-1.3,2.8-2.8,2.8c-1.6,0-2.8-1.8-2.8-2.8s1.3-1.9,2.8-1.9
		C33.9,39.8,35.1,40.6,35.1,41.7"/>
	<path id="Fill-13" class="st3" d="M23.7,35.8c0,2.2-1.8,3.9-3.9,3.9s-3.9-1.8-3.9-3.9c0-2.2,1.8-3.9,3.9-3.9S23.7,33.7,23.7,35.8"
		/>
	<path id="Fill-17" class="st3" d="M41,35.8c0,2.2,1.8,3.9,3.9,3.9c2.2,0,3.9-1.8,3.9-3.9c0-2.2-1.8-3.9-3.9-3.9
		C42.7,31.9,41,33.7,41,35.8"/>
	<path id="Stroke-21" class="st4" d="M47.2,44.5c0,0,9.4-4.7,17.3,0"/>
	<path id="Stroke-23" class="st4" d="M17.4,44.5c0,0-9.4-4.7-17.3,0"/>
	<path id="Stroke-25" class="st4" d="M50.4,49.2c0,0,6.3-3.1,11,0"/>
	<path id="Stroke-27" class="st4" d="M14.2,49.2c0,0-6.3-3.1-11,0"/>
</g>
</svg>
