<?xml version="1.0" encoding="utf-8"?>
<!-- Generator: Adobe Illustrator 21.0.0, SVG Export Plug-In . SVG Version: 6.00 Build 0)  -->
<svg version="1.1" id="Layer_1" xmlns="http://www.w3.org/2000/svg" xmlns:xlink="http://www.w3.org/1999/xlink" x="0px" y="0px"
	 viewBox="0 0 70 70" style="enable-background:new 0 0 70 70;" xml:space="preserve">
<style type="text/css">
	.st0{fill:#FFF5E5;stroke:#3C3C3C;stroke-width:4;stroke-linecap:round;stroke-linejoin:round;}
	.st1{fill:none;stroke:#000000;stroke-width:4;stroke-linecap:round;}
	.st2{fill:#3C3C3C;}
	.st3{fill:#B16905;}
	.st4{fill:none;stroke:#3C3C3C;stroke-width:4;stroke-linecap:round;stroke-linejoin:round;}
	.st5{fill:#B16905;stroke:#3C3C3C;stroke-width:4;stroke-linecap:round;stroke-linejoin:round;}
</style>
<title>Icons / 70px / Dog / Color</title>
<desc>Created with Sketch.</desc>
<g id="Group-17" transform="translate(0.000000, 5.000000)">
	<path id="Stroke-1" class="st0" d="M54.6,21.1C52,12,45.8,3.9,34.9,3.9s-17,8.1-19.6,17.2c-1.6,5.7-3.3,11.5-3.3,16
		c0,12,10.3,21.7,22.9,21.7S57.8,49,57.8,37.1C57.8,32.6,56.2,26.8,54.6,21.1z"/>
	<path id="Stroke-5" class="st1" d="M34.6,44c0,3.2-2.6,5.7-5.7,5.7c-2.5,0-4.6-1.6-5.4-3.8"/>
	<path id="Stroke-7" class="st1" d="M45.7,45.9c-0.8,2.2-2.9,3.8-5.4,3.8c-3.2,0-5.7-2.6-5.7-5.7"/>
	<path id="Fill-3" d="M39.8,39.9c0,1.8-2.3,4.8-5.2,4.8s-5.2-3-5.2-4.8s2.3-3.2,5.2-3.2S39.8,38.1,39.8,39.9"/>
	<path id="Fill-9" class="st2" d="M30,21.9c0,1.8-1.5,3.3-3.3,3.3s-3.3-1.5-3.3-3.3s1.5-3.3,3.3-3.3S30,20.1,30,21.9"/>
	<path id="Fill-11" class="st3" d="M54.6,21.1c-2.4-8.3-7.7-15.7-16.8-17c-2.8,3-4.5,6.9-4.5,11.3c0,9,7.3,16.4,16.4,16.4
		c2.6,0,5.1-0.6,7.3-1.7C56.3,27.2,55.4,24.1,54.6,21.1"/>
	<path id="Path" class="st2" d="M43.1,25.2c-1.8,0-3.3-1.5-3.3-3.3s1.5-3.3,3.3-3.3s3.3,1.5,3.3,3.3C46.4,23.7,44.9,25.2,43.1,25.2"
		/>
	<path id="Stroke-1_1_" class="st4" d="M54.6,21.1C52,12,45.8,3.9,34.9,3.9s-17,8.1-19.6,17.2c-1.6,5.7-3.3,11.5-3.3,16
		c0,12,10.3,21.7,22.9,21.7S57.8,49,57.8,37.1C57.8,32.6,56.2,26.8,54.6,21.1z"/>
	<path id="Stroke-13" class="st5" d="M22,7.3c2-1.3,2.3-2.9,0.7-3.2c-3.2-0.6-7.3-0.8-12.3,1.4c-3,1.3-7.7,5.3-8.1,9.7
		c-0.4,4.8,3.3,9,6.5,9.6C13.5,25.6,12.5,13.8,22,7.3z"/>
	<path id="Stroke-15" class="st5" d="M47.8,7.3c-1.9-1.3-2.2-2.9-0.6-3.2c3.2-0.6,7.3-0.8,12.3,1.4c3,1.3,7.7,5.3,8.1,9.7
		c0.4,4.8-3.3,9-6.5,9.6C56.3,25.6,57.4,13.8,47.8,7.3z"/>
</g>
</svg>
