<?xml version="1.0" encoding="UTF-8"?>
<svg width="58px" height="95px" viewBox="0 0 58 95" version="1.1" xmlns="http://www.w3.org/2000/svg" xmlns:xlink="http://www.w3.org/1999/xlink">
    <!-- Generator: Sketch 51.3 (57544) - http://www.bohemiancoding.com/sketch -->
    <title>Icons / 70px / Humano / Color</title>
    <desc>Created with Sketch.</desc>
    <defs></defs>
    <g id="Mobile" stroke="none" stroke-width="1" fill="none" fill-rule="evenodd">
        <g id="Filtro" transform="translate(-152.000000, -363.000000)">
            <g id="Icons-/-70px-/-Humano-/-Color" transform="translate(145.000000, 360.000000)">
                <g id="Group-11" transform="translate(8.000000, 5.000000)">
                    <path d="M54.541,7.6366 C55.076,4.9286 53.314,2.3006 50.607,1.7666 L49.506,1.5486 C46.799,1.0136 44.171,2.7756 43.636,5.4826 L36.571,37.9006 C36.319,39.0556 34.676,39.0676 34.407,37.9156 L26.519,4.0946 C26.02,1.3806 23.416,-0.4154 20.702,0.0826 L19.597,0.2856 C16.883,0.7836 15.087,3.3886 15.585,6.1026 L21.161,36.4696 C20.132,33.4746 16.785,31.8886 13.767,33.1446 C11.077,34.2636 9.831,37.3966 10.69,40.1796 L11.67,43.3486 C10.585,40.7266 7.685,39.2986 4.92,40.1526 C2.461,40.9116 0.931,43.2246 1.027,45.6796 C1.027,45.6796 3.892,67.4146 5.723,74.4746 C8.232,84.1496 18.295,90.5226 28.901,90.1556 C37.632,89.8526 45.281,84.2836 48.945,76.3536 C56.395,60.2266 47.315,50.0096 50.513,28.0276 C51.261,22.8856 54.541,7.6366 54.541,7.6366 Z" id="Stroke-7" fill="#FFF4DF"></path>
                    <path d="M25.5312,77.6786 C25.5312,77.6786 25.5312,62.6906 35.5242,60.1926" id="Stroke-1" stroke="#3C3C3C" stroke-width="4" stroke-linecap="round" stroke-linejoin="round"></path>
                    <path d="M27.3945,57.5321 C27.3535,59.8681 25.8305,62.0151 23.4765,62.7431 C20.5425,63.6481 17.4315,62.0051 16.5255,59.0721 L10.6075,39.9101 C9.7025,36.9771 11.3445,33.8651 14.2785,32.9601 C17.2105,32.0531 20.3235,33.6971 21.2285,36.6301 L22.7625,41.5951" id="Stroke-3" stroke="#3C3C3C" stroke-width="4" stroke-linecap="round" stroke-linejoin="round"></path>
                    <path d="M12.6855,65.2977 C9.7515,66.2037 6.6405,64.5607 5.7345,61.6277 L1.2485,47.1037 C0.3425,44.1697 1.9865,41.0587 4.9195,40.1517 C7.8525,39.2467 10.9635,40.8907 11.8705,43.8227 L16.3555,58.3477 C17.2615,61.2797 15.6185,64.3927 12.6855,65.2977 Z" id="Stroke-5" stroke="#3C3C3C" stroke-width="4" stroke-linecap="round" stroke-linejoin="round"></path>
                    <path d="M54.541,7.6366 C55.076,4.9286 53.314,2.3006 50.607,1.7666 L49.506,1.5486 C46.799,1.0136 44.171,2.7756 43.636,5.4826 L36.571,37.9006 C36.319,39.0556 34.676,39.0676 34.407,37.9156 L26.519,4.0946 C26.02,1.3806 23.416,-0.4154 20.702,0.0826 L19.597,0.2856 C16.883,0.7836 15.087,3.3886 15.585,6.1026 L21.161,36.4696 C20.132,33.4746 16.785,31.8886 13.767,33.1446 C11.077,34.2636 9.831,37.3966 10.69,40.1796 L11.67,43.3486 C10.585,40.7266 7.685,39.2986 4.92,40.1526 C2.461,40.9116 0.931,43.2246 1.027,45.6796 C1.027,45.6796 3.892,67.4146 5.723,74.4746 C8.232,84.1496 18.295,90.5226 28.901,90.1556 C37.632,89.8526 45.281,84.2836 48.945,76.3536 C56.395,60.2266 47.315,50.0096 50.513,28.0276 C51.261,22.8856 54.541,7.6366 54.541,7.6366 Z" id="Stroke-7" stroke="#3C3C3C" stroke-width="4" stroke-linecap="round" stroke-linejoin="round"></path>
                    <path d="M50.5126,60.1923 L48.0146,52.6973 C45.5166,50.1993 25.5316,42.7053 23.0336,42.7053 C20.5346,42.7053 15.5386,55.1963 35.5246,60.1923 C35.5246,60.1923 35.5246,67.6863 38.0226,70.1843" id="Stroke-9" stroke="#3C3C3C" stroke-width="4" stroke-linecap="round" stroke-linejoin="round"></path>
                </g>
            </g>
        </g>
    </g>
</svg>