<?xml version="1.0" encoding="UTF-8"?>
<svg width="67px" height="64px" viewBox="0 0 67 64" version="1.1" xmlns="http://www.w3.org/2000/svg" xmlns:xlink="http://www.w3.org/1999/xlink">
    <!-- Generator: Sketch 51.3 (57544) - http://www.bohemiancoding.com/sketch -->
    <title>Icons / 70px / Mascota / Color</title>
    <desc>Created with Sketch.</desc>
    <defs></defs>
    <g id="Mobile" stroke="none" stroke-width="1" fill="none" fill-rule="evenodd">
        <g id="Filtro" transform="translate(-146.000000, -183.000000)">
            <g id="Icons-/-70px-/-Mascota-/-Color" transform="translate(145.000000, 183.000000)">
                <g id="Group-21" transform="translate(3.000000, 2.000000)">
                    <path d="M50.0393401,48.1150039 C50.0393401,48.1150039 50.0393401,59.6625295 30.79315,59.6625295 C11.5479026,59.6625295 11.5479026,48.1150039 11.5479026,48.1150039 L9.79456402,46.660487 C7.1428751,43.0020424 2.97256874,40.7170463 1.35780047,36.2950511 C-1.66152396,28.0204242 4.60336214,18.8587588 13.4746897,18.896465 C9.3411469,3.38130401 30.8761037,-2.64131972 34.6165593,13.1443833 C34.8559937,6.79748625 44.457879,3.76873527 49.5812097,6.75695208 C54.875161,9.84603299 55.285216,17.696465 51.7709976,22.4512176 C59.8580361,23.3043205 63.0404399,31.2235664 59.6581932,38.4763551 C57.7606284,42.543912 53.7618853,43.7938727 51.0263001,47.0073841 L50.0393401,48.1150039 Z" id="Stroke-19" fill="#CFCFCF"></path>
                    <path d="M23.5860801,45.8398115 C14.4442105,46.122608 24.8690338,16.5760251 33.9119246,26.9235507 C37.0283425,30.4896151 43.2385546,39.4561508 39.7742969,44.1288924 C37.9380047,46.6071328 35.4041477,46.3818382 32.784509,45.6871013 C29.3042262,44.7632993 27.1248075,45.7304635 23.5860801,45.8398115 Z" id="Stroke-1" stroke="#3C3C3C" stroke-width="4" fill="#FF9F91" stroke-linecap="round" stroke-linejoin="round"></path>
                    <path d="M11.00022,26.1034407 C4.59864886,27.9350196 7.93753339,37.7028123 13.8479811,34.4685625 C18.7837235,31.7669128 16.5967636,24.5018696 11.00022,26.1034407 Z" id="Stroke-3" stroke="#3C3C3C" stroke-width="4" fill="#FF9F91" stroke-linecap="round" stroke-linejoin="round"></path>
                    <path d="M19.4306677,17.4137628 C21.0416654,24.6891752 30.0534485,20.2624666 27.4715161,13.9117989 C24.9668814,7.75060487 18.238209,12.0312019 19.4306677,17.4137628 Z" id="Stroke-5" stroke="#3C3C3C" stroke-width="4" fill="#FF9F91" stroke-linecap="round" stroke-linejoin="round"></path>
                    <path d="M40.5704635,13.7826551 C34.9286724,19.8590102 45.5797329,25.7722859 48.22011,17.8417282 C49.9772192,12.5647447 44.1516104,9.9271956 40.5704635,13.7826551 Z" id="Stroke-7" stroke="#3C3C3C" stroke-width="4" fill="#FF9F91" stroke-linecap="round" stroke-linejoin="round"></path>
                    <path d="M44.7268185,31.438586 C42.7915475,40.1883111 55.0385232,39.1117989 53.1805499,31.2425137 C51.9814925,26.1672584 45.8429222,26.3944383 44.7268185,31.438586 Z" id="Stroke-9" stroke="#3C3C3C" stroke-width="4" fill="#FF9F91" stroke-linecap="round" stroke-linejoin="round"></path>
                    <path d="M57.3366222,24.4588845 C57.3366222,24.4588845 61.2156481,21.4989474 61.9905106,22.4519717 C63.1763708,23.9112019 60.0740927,28.2002828 60.0740927,28.2002828" id="Stroke-11" stroke="#3C3C3C" stroke-width="4" stroke-linecap="round" stroke-linejoin="round"></path>
                    <path d="M45.7486567,5.47965436 C47.0259544,3.28986646 49.0328672,1.3743912 49.9463001,1.82969364 C50.8248547,2.26991359 50.5844776,5.57109191 50.2196701,7.30463472" id="Stroke-13" stroke="#3C3C3C" stroke-width="4" stroke-linecap="round" stroke-linejoin="round"></path>
                    <path d="M18.3747997,5.38849961 C18.2833621,3.3815868 18.1721288,0.889206599 19.3683582,0.127541241 C20.5645876,-0.634124116 21.9333229,2.19478397 22.572443,3.74639434" id="Stroke-15" stroke="#3C3C3C" stroke-width="4" stroke-linecap="round" stroke-linejoin="round"></path>
                    <path d="M2.31563236,25.3715632 C0.702749411,24.5005499 -0.513275727,20.4443048 0.216339356,19.8051846 C0.946897093,19.1660644 3.77863315,20.4329929 5.59984289,21.4472899" id="Stroke-17" stroke="#3C3C3C" stroke-width="4" stroke-linecap="round" stroke-linejoin="round"></path>
                    <path d="M50.0393401,48.1150039 C50.0393401,48.1150039 50.0393401,59.6625295 30.79315,59.6625295 C11.5479026,59.6625295 11.5479026,48.1150039 11.5479026,48.1150039 L9.79456402,46.660487 C7.1428751,43.0020424 2.97256874,40.7170463 1.35780047,36.2950511 C-1.66152396,28.0204242 4.60336214,18.8587588 13.4746897,18.896465 C9.3411469,3.38130401 30.8761037,-2.64131972 34.6165593,13.1443833 C34.8559937,6.79748625 44.457879,3.76873527 49.5812097,6.75695208 C54.875161,9.84603299 55.285216,17.696465 51.7709976,22.4512176 C59.8580361,23.3043205 63.0404399,31.2235664 59.6581932,38.4763551 C57.7606284,42.543912 53.7618853,43.7938727 51.0263001,47.0073841 L50.0393401,48.1150039 Z" id="Stroke-19" stroke="#3C3C3C" stroke-width="4" stroke-linecap="round" stroke-linejoin="round"></path>
                </g>
            </g>
        </g>
    </g>
</svg>