<?xml version="1.0" encoding="utf-8"?>
<!-- Generator: Adobe Illustrator 21.0.0, SVG Export Plug-In . SVG Version: 6.00 Build 0)  -->
<svg version="1.1" id="Layer_1" xmlns="http://www.w3.org/2000/svg" xmlns:xlink="http://www.w3.org/1999/xlink" x="0px" y="0px"
	 viewBox="0 0 70 76" style="enable-background:new 0 0 70 76;" xml:space="preserve">
<style type="text/css">
	.st0{fill:#FCEDCD;}
	.st1{fill:none;stroke:#3C3C3C;stroke-width:4;stroke-linecap:round;stroke-linejoin:round;}
	.st2{fill:none;stroke:#89E7DF;stroke-width:4;stroke-linecap:round;stroke-linejoin:round;}
	.st3{fill:#89E7DF;stroke:#3C3C3C;stroke-width:4;stroke-linecap:round;stroke-linejoin:round;}
	.st4{fill:#89E7DF;stroke:#FFFFFF;stroke-width:4;stroke-linecap:round;stroke-linejoin:round;}
</style>
<title>Icons / 70px / Necesidades-si / Color</title>
<desc>Created with Sketch.</desc>
<g id="Group-2" transform="translate(3.000000, -11.000000)">
	<path id="Fill-1" class="st0" d="M33.9,37c4.4-4.9,3.3-18.1-7-21c-13.3-3.8-15.2,0-15.2,0H2.3c0,0-1.9,9.5,0,11.4
		C4.2,29.2,13.6,33,13.6,33s-3.8,11.4-1.9,17.1s7.6,11.4,7.6,11.4l-3.8,15.2c0,0-5.7,0-3.8,7.6h5.7h5.7L26.9,67c0,0,2.3,0,7,0
		c2.9-5,5.7-7.7,8.3-8c5.7-0.7,11.8-0.7,18.6,0c-3-5.8-4.6-8.8-4.6-8.8L33.9,37z"/>
	<path id="Stroke-5" class="st1" d="M24,20.8c0,0-5.8,15.4,3.9,17.4S39.5,18.9,26,15s-15.4,0-15.4,0H0.9c0,0-1.9,9.6,0,11.6
		c1.9,1.9,11.6,5.8,11.6,5.8S8.6,44,10.6,49.8c1.9,5.8,7.7,11.6,7.7,11.6l-3.9,15.4c0,0-5.8,0-3.9,7.7h11.6L26,67.1h7.8"/>
	<path id="Stroke-13" class="st1" d="M34.1,38.2c0,0,19.4,10,22.4,13.1c3,3.1,6.5,14.1,6.5,14.1"/>
	<path id="Stroke-9" class="st2" d="M37.6,59.4L6.7,43.9"/>
	<path id="Stroke-11" class="st2" d="M27.9,53.6l13.5-15.4"/>
	<path id="Stroke-7" class="st3" d="M33.7,69.8c0,8.5,6.9,15.4,15.4,15.4s15.4-6.9,15.4-15.4s-6.9-15.4-15.4-15.4
		C40.6,54.3,33.7,61.2,33.7,69.8z"/>
	<path id="Stroke-15" class="st4" d="M43.3,69.8c0,3.2,2.6,5.8,5.8,5.8s5.8-2.6,5.8-5.8c0-3.2-2.6-5.8-5.8-5.8
		C45.9,64,43.3,66.6,43.3,69.8z"/>
</g>
</svg>
