<?xml version="1.0" encoding="utf-8"?>
<!-- Generator: Adobe Illustrator 21.0.0, SVG Export Plug-In . SVG Version: 6.00 Build 0)  -->
<svg version="1.1" id="Layer_1" xmlns="http://www.w3.org/2000/svg" xmlns:xlink="http://www.w3.org/1999/xlink" x="0px" y="0px"
	 viewBox="0 0 70 69" style="enable-background:new 0 0 70 69;" xml:space="preserve">
<style type="text/css">
	.st0{fill:#FCEDCD;}
	.st1{fill:none;stroke:#3C3C3C;stroke-width:4;stroke-linecap:round;stroke-linejoin:round;}
</style>
<title>Icons / 70px / Necesidades-no / Color</title>
<desc>Created with Sketch.</desc>
<g id="Group" transform="translate(3.000000, 0.000000)">
	<path id="Fill-1" class="st0" d="M32.5,23.4c3.9-4.3,2.9-16.1-6.3-18.7c-11.8-3.4-13.5,0-13.5,0H4.4c0,0-1.7,8.4,0,10.1
		s10.1,5.1,10.1,5.1s-3.4,10-1.7,15.1s6.7,10.1,6.7,10.1l-3.4,13.5c0,0-5.1,0-3.4,6.7h5.1h5.1h30.3c0,0,10.1-8.4,8.4-11.8
		c-1.7-3.4-8.4,3.4-8.4,3.4s0-10.1-1.7-13.5C49.8,40,36.4,26.6,36.4,26.6L32.5,23.4z"/>
	<path id="Stroke-1" class="st1" d="M36.1,26.3c0,0,13.9,13.9,15.6,17.3c1.7,3.5,1.7,13.9,1.7,13.9s6.9-6.9,8.7-3.5
		c1.7,3.5-8.7,12.1-8.7,12.1H22.2c0,0-1.7-6.9,5.2-6.9h5.2c0,0-6.9-8.7-1.7-13.9s10.4-1.7,10.4-1.7"/>
	<path id="Stroke-3" class="st1" d="M23.9,9c0,0-5.2,13.9,3.5,15.6S37.8,7.3,25.7,3.8s-13.9,0-13.9,0H3.1c0,0-1.7,8.7,0,10.4
		s10.4,5.2,10.4,5.2S10.1,29.8,11.8,35s6.9,10.4,6.9,10.4l-3.5,13.9c0,0-5.2,0-3.5,6.9H17"/>
</g>
</svg>
