<?xml version="1.0" encoding="utf-8"?>
<!-- Generator: Adobe Illustrator 21.0.0, SVG Export Plug-In . SVG Version: 6.00 Build 0)  -->
<svg version="1.1" id="Layer_1" xmlns="http://www.w3.org/2000/svg" xmlns:xlink="http://www.w3.org/1999/xlink" x="0px" y="0px"
	 viewBox="0 0 70 66" style="enable-background:new 0 0 70 66;" xml:space="preserve">
<style type="text/css">
	.st0{fill:#9A9A9A;stroke:#3C3C3C;stroke-width:4;stroke-linecap:round;stroke-linejoin:round;}
	.st1{fill:#FFF4DF;stroke:#3C3C3C;stroke-width:4;stroke-linecap:round;stroke-linejoin:round;}
</style>
<title>Icons / 70px / No / Color</title>
<desc>Created with Sketch.</desc>
<g id="Group" transform="translate(4.000000, 0.000000)">
	<polygon id="Stroke-4" class="st0" points="43.2,39.2 60.8,39.2 60.8,2.4 43.2,2.4 	"/>
	<path id="Stroke-5" class="st1" d="M19.5,58.7c0,0,0-3.2,1.6-8c1.6-4.8,3.2-4.8,3.2-8H6.7c-2.7,0-4.8-2.1-4.8-4.8
		c0-4.8,6.4-4.8,6.4-4.8c-2.7,0-4.8-2.2-4.8-4.8c0-6.4,8-4.8,8-4.8c-2.7,0-4.8-2.1-4.8-4.8c0-4.8,3.8-4.8,6.4-4.8
		c0,0-3.2-0.8-3.2-4.8c0-2.2,1.8-4.8,4-4.8h25.5c1.4,0,2.5,1.1,2.5,2.5v27.9c0,6.4-6.4,12.8-9.6,16c-3.2,3.2-3.2,8-3.2,8
		c0,2.7-2.2,4.8-4.8,4.8C21.7,63.5,19.5,61.4,19.5,58.7z"/>
</g>
</svg>
