<?xml version="1.0" encoding="utf-8"?>
<!-- Generator: Adobe Illustrator 21.0.0, SVG Export Plug-In . SVG Version: 6.00 Build 0)  -->
<svg version="1.1" id="Layer_1" xmlns="http://www.w3.org/2000/svg" xmlns:xlink="http://www.w3.org/1999/xlink" x="0px" y="0px"
	 viewBox="0 0 70 61" style="enable-background:new 0 0 70 61;" xml:space="preserve">
<style type="text/css">
	.st0{fill:#FFC53F;stroke:#3C3C3C;stroke-width:4;stroke-linecap:round;stroke-linejoin:round;}
	.st1{fill:none;stroke:#000000;stroke-width:3;stroke-linecap:round;}
	.st2{fill:#F4606F;}
	.st3{fill:none;stroke:#F4606F;stroke-width:3;stroke-linecap:round;}
	.st4{fill:none;stroke:#000000;stroke-width:1.5;stroke-linecap:round;}
</style>
<title>Icons / 70px / Pets-si / Color</title>
<desc>Created with Sketch.</desc>
<g id="Group-21" transform="translate(6.000000, 1.000000)">
	<path id="Stroke-1" class="st0" d="M49.5,15c0.7-2.1,2-7.8-0.3-13.4c0,0-6.6,0-9.7,6.4c-3.3-1.4-7-2.1-10.8-2.1
		c-3.8,0-7.3,0.7-10.6,2c-3.1-6.3-9.6-6.3-9.6-6.3c-2.2,5.5-1,11-0.4,13.2C4,19.3,1.5,25.2,1.5,31.6c0,14.2,12.2,25.8,27.2,25.8
		c15,0,27.2-11.5,27.2-25.8C55.9,25.2,53.5,19.4,49.5,15z"/>
	<path id="Stroke-3" class="st1" d="M22.3,25.3c-0.8-1.4-2.3-2.4-4-2.4c-1.7,0-3.2,1-4,2.4"/>
	<path id="Stroke-5" class="st1" d="M35.1,25.3c0.8-1.4,2.3-2.4,4-2.4c1.7,0,3.2,1,4,2.4"/>
	<path id="Fill-7" class="st2" d="M31.2,29.1c0,0.9-1.1,2.5-2.5,2.5c-1.4,0-2.5-1.6-2.5-2.5c0-0.9,1.1-1.6,2.5-1.6
		C30.1,27.5,31.2,28.2,31.2,29.1"/>
	<path id="Stroke-9" class="st3" d="M28.7,30.8c0,2-1.4,5.1-3.7,5.1c-1.6,0-3-1-3.5-2.5"/>
	<path id="Stroke-11" class="st3" d="M35.9,33.4c-0.5,1.4-1.9,2.5-3.5,2.5c-2.3,0-3.7-3.1-3.7-5.1"/>
	<path id="Stroke-13" class="st4" d="M13.2,31.6c0,0-3.6,0-6,3.6"/>
	<path id="Stroke-15" class="st4" d="M13.9,35.8c0,0-3.5,0.8-5,4.8"/>
	<path id="Stroke-17" class="st4" d="M44.2,31.6c0,0,3.6,0,6,3.6"/>
	<path id="Stroke-19" class="st4" d="M43.5,35.8c0,0,3.5,0.8,5,4.8"/>
</g>
</svg>
