<?xml version="1.0" encoding="utf-8"?>
<!-- Generator: Adobe Illustrator 21.0.0, SVG Export Plug-In . SVG Version: 6.00 Build 0)  -->
<svg version="1.1" id="Layer_1" xmlns="http://www.w3.org/2000/svg" xmlns:xlink="http://www.w3.org/1999/xlink" x="0px" y="0px"
	 viewBox="0 0 70 61" style="enable-background:new 0 0 70 61;" xml:space="preserve">
<style type="text/css">
	.st0{fill:#FFE3A4;stroke:#3C3C3C;stroke-width:4;stroke-linecap:round;}
	.st1{fill:none;stroke:#000000;stroke-width:3;stroke-linecap:round;}
	.st2{fill:#FF8002;}
	.st3{fill:none;stroke:#3C3C3C;stroke-width:3;stroke-linecap:round;}
	.st4{fill:#FFFFFF;stroke:#000000;stroke-width:1.5;stroke-linecap:round;stroke-linejoin:round;}
	.st5{fill:none;stroke:#3C3C3C;stroke-width:4;stroke-linecap:round;}
</style>
<title>Icons / 70px / Pets-no / Color</title>
<desc>Created with Sketch.</desc>
<g id="Group-31" transform="translate(5.000000, 1.000000)">
	<path id="Stroke-1" class="st0" d="M51.3,1.3c-3.1-0.8-9,6.2-11.6,11c-2.9-0.4-6-0.7-9.3-0.7s-6.3,0.2-9.3,0.7
		c-2.6-4.8-8.4-11.8-11.6-11C6.9,2,1.7,25.8,2.5,34c1.4,15.3,14.2,22.7,28,22.7c13.9,0,26.4-8.7,27.8-24C59,24.5,54.1,2,51.3,1.3z"
		/>
	<path id="Stroke-5" class="st1" d="M30.4,40.4c0,2,0,5.9-3.7,7.4"/>
	<path id="Stroke-7" class="st1" d="M34,47.8c-3.7-1.5-3.7-5.3-3.7-7.4"/>
	<path id="Fill-3" d="M33.3,39.2c0,1-1.3,2.7-3,2.7c-1.6,0-3-1.7-3-2.7c0-1,1.3-1.8,3-1.8C32,37.5,33.3,38.3,33.3,39.2"/>
	<path id="Fill-9" class="st2" d="M20,12.4v7.4c0,4.4,4.4,4.4,4.4,0v-7.4H20z"/>
	<path id="Fill-11" class="st2" d="M36.3,12.4v7.4c0,4.4,4.4,4.4,4.4,0v-7.4H36.3z"/>
	<path id="Fill-13" class="st2" d="M28.9,12.4v9c0,4.3,4.4,4.4,4.4,0v-9H28.9z"/>
	<path id="Stroke-15" class="st3" d="M8.2,49.3l-5.9,5.9"/>
	<path id="Stroke-17" class="st3" d="M12.6,52.2l-4.4,5.9"/>
	<path id="Stroke-19" class="st3" d="M52.5,49.3l5.9,5.9"/>
	<path id="Stroke-21" class="st3" d="M48.1,52.2l4.4,5.9"/>
	<path id="Stroke-23" class="st4" d="M25.9,33c0,4.4-4.4,5.9-8.9,5.9c-3,0-7.4-0.6-7.4-5.9c0-2.3,4.6-1.8,8.9-1.5
		C22.3,31.8,25.9,33,25.9,33z"/>
	<path id="Fill-25" d="M21.5,32.3c0,2-1.7,3.7-3.7,3.7c-2,0-3.7-1.7-3.7-3.7c0-2,2.4-0.7,4.4-0.7S21.5,30.3,21.5,32.3"/>
	<path id="Stroke-27" class="st4" d="M36.3,33c0,4.4,4.4,5.9,8.9,5.9c3,0,7.4-0.6,7.4-5.9c0-2.3-4.6-1.8-8.9-1.5
		C39.8,31.8,36.3,33,36.3,33z"/>
	<path id="Fill-29" d="M40.7,32.3c0,2,1.7,3.7,3.7,3.7c2,0,3.7-1.7,3.7-3.7c0-2-2.4-0.7-4.4-0.7C41.6,31.6,40.7,30.3,40.7,32.3"/>
	<path id="Stroke-1_1_" class="st5" d="M51.3,1.3c-3.1-0.8-9,6.2-11.6,11c-2.9-0.4-6-0.7-9.3-0.7s-6.3,0.2-9.3,0.7
		c-2.6-4.8-8.4-11.8-11.6-11C6.9,2,1.7,25.8,2.5,34c1.4,15.3,14.2,22.7,28,22.7c13.9,0,26.4-8.7,27.8-24C59,24.5,54.1,2,51.3,1.3z"
		/>
</g>
</svg>
