<?xml version="1.0" encoding="utf-8"?>
<!-- Generator: Adobe Illustrator 21.0.0, SVG Export Plug-In . SVG Version: 6.00 Build 0)  -->
<svg version="1.1" id="Layer_1" xmlns="http://www.w3.org/2000/svg" xmlns:xlink="http://www.w3.org/1999/xlink" x="0px" y="0px"
	 viewBox="0 0 70 101" style="enable-background:new 0 0 70 101;" xml:space="preserve">
<style type="text/css">
	.st0{fill:#F3F3F3;stroke:#3C3C3C;stroke-width:4;stroke-linecap:round;stroke-linejoin:round;}
	.st1{fill:#F4606F;stroke:#3C3C3C;stroke-width:3;stroke-linecap:round;stroke-linejoin:round;}
	.st2{fill:#89E7DF;stroke:#979797;}
</style>
<title>Icons / 70px / Piso / Color</title>
<desc>Created with Sketch.</desc>
<g id="Group-24" transform="translate(3.000000, 1.000000)">
	<polygon id="Stroke-1" class="st0" points="1.2,97.5 62.5,97.5 62.5,1.2 1.2,1.2 	"/>
	<path id="Stroke-3" class="st1" d="M31.9,82.2c-2.8,0-5.1,2.3-5.1,5.1v10.2H37V87.3C37,84.5,34.7,82.2,31.9,82.2z"/>
	<polygon id="Fill-4" class="st2" points="8.9,68.1 14,68.1 14,60.5 8.9,60.5 	"/>
	<polygon id="Fill-5" class="st2" points="19.1,68.1 24.2,68.1 24.2,60.5 19.1,60.5 	"/>
	<polygon id="Fill-6" class="st2" points="29.3,68.1 34.4,68.1 34.4,60.5 29.3,60.5 	"/>
	<polygon id="Fill-7" class="st2" points="39.5,68.1 44.6,68.1 44.6,60.5 39.5,60.5 	"/>
	<polygon id="Fill-8" class="st2" points="49.7,68.1 54.8,68.1 54.8,60.5 49.7,60.5 	"/>
	<polygon id="Fill-9" class="st2" points="8.9,53.2 14,53.2 14,45.6 8.9,45.6 	"/>
	<polygon id="Fill-10" class="st2" points="19.1,53.2 24.2,53.2 24.2,45.6 19.1,45.6 	"/>
	<polygon id="Fill-11" class="st2" points="29.3,53.2 34.4,53.2 34.4,45.6 29.3,45.6 	"/>
	<polygon id="Fill-12" class="st2" points="39.5,53.2 44.6,53.2 44.6,45.6 39.5,45.6 	"/>
	<polygon id="Fill-13" class="st2" points="49.7,53.2 54.8,53.2 54.8,45.6 49.7,45.6 	"/>
	<polygon id="Fill-14" class="st2" points="8.9,38.3 14,38.3 14,30.6 8.9,30.6 	"/>
	<polygon id="Fill-15" class="st2" points="19.1,38.3 24.2,38.3 24.2,30.6 19.1,30.6 	"/>
	<polygon id="Fill-16" class="st2" points="29.3,38.3 34.4,38.3 34.4,30.6 29.3,30.6 	"/>
	<polygon id="Fill-17" class="st2" points="39.5,38.3 44.6,38.3 44.6,30.6 39.5,30.6 	"/>
	<polygon id="Fill-18" class="st2" points="49.7,38.3 54.8,38.3 54.8,30.6 49.7,30.6 	"/>
	<polygon id="Fill-19" class="st2" points="8.9,23.3 14,23.3 14,15.7 8.9,15.7 	"/>
	<polygon id="Fill-20" class="st2" points="19.1,23.3 24.2,23.3 24.2,15.7 19.1,15.7 	"/>
	<polygon id="Fill-21" class="st2" points="29.3,23.3 34.4,23.3 34.4,15.7 29.3,15.7 	"/>
	<polygon id="Fill-22" class="st2" points="39.5,23.3 44.6,23.3 44.6,15.7 39.5,15.7 	"/>
	<polygon id="Fill-23" class="st2" points="49.7,23.3 54.8,23.3 54.8,15.7 49.7,15.7 	"/>
</g>
</svg>
