<?xml version="1.0" encoding="utf-8"?>
<!-- Generator: Adobe Illustrator 21.0.0, SVG Export Plug-In . SVG Version: 6.00 Build 0)  -->
<svg version="1.1" id="Layer_1" xmlns="http://www.w3.org/2000/svg" xmlns:xlink="http://www.w3.org/1999/xlink" x="0px" y="0px"
	 viewBox="0 0 60 59" style="enable-background:new 0 0 60 59;" xml:space="preserve">
<style type="text/css">
	.st0{fill:#FF9C31;stroke:#3C3C3C;stroke-width:3;stroke-linecap:round;stroke-linejoin:round;}
	.st1{fill:#FFE7E4;}
	.st2{fill:#F6EE99;}
	.st3{fill:none;stroke:#000000;stroke-width:1.5;stroke-linecap:round;}
</style>
<title>Icons / 70px / Raza-mediana / Color</title>
<desc>Created with Sketch.</desc>
<g id="Icons-_x2F_-70px-_x2F_-Raza-mediana-_x2F_-Color">
	<g id="Group-2">
		<path id="Stroke-29" class="st0" d="M51.1,32.4c7.1-8.5,7.1-19.9,5.7-26.3c-0.4-1.9-1.6-3.6-3.6-3.6c-3.6,0-16.3,10-16.3,10
			c-1.9-1-4.7-1.5-6.4-1.5c-2,0-6,0.6-7.8,1.5c0,0-12.8-10-16.3-10c-2,0-3.1,1.6-3.6,3.6c-1.4,6.4-1.4,17.8,5.7,26.3
			c0,0,0,5-4.7,9.1C3.4,42,3.5,42.7,4,43.1l5.9,3.6L8.5,48c0,0,9.9,8.5,22,8.5S51.1,48,51.1,48l-1.4-1.4l5.9-3.6
			c0.6-0.3,0.6-1.1,0.2-1.5C51.1,37.4,51.1,32.4,51.1,32.4z"/>
		<path id="Fill-31" d="M41.6,31c0,1.6-1.3,2.8-2.8,2.8c-1.6,0-2.8-1.3-2.8-2.8c0-1.6,1.3-2.8,2.8-2.8C40.3,28.2,41.6,29.4,41.6,31"
			/>
		<path id="Fill-33" d="M23.8,31c0,1.6-1.3,2.8-2.8,2.8s-2.8-1.3-2.8-2.8c0-1.6,1.3-2.8,2.8-2.8S23.8,29.4,23.8,31"/>
		<path id="Stroke-37" class="st1" d="M17,15.8L8,9.6c-0.3-0.2-0.6,0-0.7,0.3C7,12.5,7,15.3,7.6,18.1c0.5,3.1,1.6,5.9,3,8.3
			C11.5,22.1,13.8,18.3,17,15.8z"/>
		<path id="Stroke-39" class="st1" d="M42.6,15.8l9-6.2c0.3-0.2,0.6,0,0.7,0.3c0.4,2.6,0.3,5.4-0.2,8.2c-0.5,3.1-1.6,5.9-3,8.3
			C48.2,22.1,45.8,18.3,42.6,15.8z"/>
		<path id="Stroke-41" class="st2" d="M39.8,36.6c-3.6-1-6.7-3.3-7.1-7l0,0c0,0-1.2-8.5-1.4-11.4c0-0.8-0.6-1.4-1.4-1.4
			c-0.8,0-1.4,0.6-1.4,1.4C28.2,21.1,27,29.6,27,29.6l0,0c-0.4,3.9-3.7,6.1-7.5,7.1c-1.9,0.5-5.2,1.4-5.2,5.7
			c0,5.7,9.7,11.4,15.6,11.4c5.9,0,15.6-5.7,15.6-11.4C45.5,38.1,41.7,37.2,39.8,36.6z"/>
		<path id="Stroke-43" class="st3" d="M29.8,42.3c0,2-1.6,3.7-3.7,3.7c-1.6,0-2.9-1-3.4-2.4"/>
		<path id="Stroke-45" class="st3" d="M36.9,43.5c-0.5,1.4-1.9,2.4-3.4,2.4c-2,0-3.7-1.6-3.7-3.7"/>
		<path id="Fill-35" d="M33,39.2c0,0.9-2.1,3.2-3.4,3.2c-0.9,0-3-2.3-3-3.2s1.6-1.1,3-1.1C31,38.1,33,38.3,33,39.2"/>
	</g>
</g>
</svg>
