<?xml version="1.0" encoding="utf-8"?>
<!-- Generator: Adobe Illustrator 21.0.0, SVG Export Plug-In . SVG Version: 6.00 Build 0)  -->
<svg version="1.1" id="Layer_1" xmlns="http://www.w3.org/2000/svg" xmlns:xlink="http://www.w3.org/1999/xlink" x="0px" y="0px"
	 viewBox="0 0 70 75" style="enable-background:new 0 0 70 75;" xml:space="preserve">
<style type="text/css">
	.st0{stroke:#3C3C3C;stroke-width:3.5;stroke-linecap:round;stroke-linejoin:round;}
	.st1{fill:#FFFDEC;}
	.st2{fill:none;stroke:#000000;stroke-width:3.5;stroke-linecap:round;}
	.st3{fill:none;stroke:#FFF9E1;stroke-width:3.5;stroke-linecap:round;stroke-linejoin:round;}
	.st4{fill:#FFFFFF;}
	.st5{fill:none;stroke:#3C3C3C;stroke-width:3.5;stroke-linecap:round;stroke-linejoin:round;}
</style>
<title>Icons / 70px / Raza-grande / Color</title>
<desc>Created with Sketch.</desc>
<g id="Group-23" transform="translate(7.000000, 0.000000)">
	<path id="Stroke-21" class="st0" d="M54.5,7.1c0-2.7-2.2-4.9-4.9-4.9c-1.3,0-2.4,0.5-3.3,1.3L38,12c0,0-3.3-1.6-9.9-1.6
		c-6.6,0-9.9,1.6-9.9,1.6l-8.2-8.6C9.2,2.6,8,2.2,6.8,2.2C4,2.2,1.8,4.4,1.8,7.1v37.9c0,7.7,13.2,28,26.3,28
		c13.2,0,26.3-20.3,26.3-28V7.1z"/>
	<path id="Stroke-19" class="st1" d="M28.2,72.9c-9.9,0-24.7-14.8-24.7-26.3c0-3.2,1.5-6,3.8-7.8c0.5-0.4,1.2-0.1,1.3,0.5
		c0.8,4.2,4.5,7.3,8.9,7.3c4.8,0,8.8-3.8,9-8.5l0,0V18.6c0-0.9,0.7-1.6,1.6-1.6c0.9,0,1.6,0.7,1.6,1.6v19.3l0,0
		c0.2,4.8,4.2,8.7,9,8.7c4.4,0,8.1-3.1,8.9-7.3c0.1-0.6,0.8-0.9,1.3-0.5c2.3,1.8,3.8,4.6,3.8,7.8C52.8,58.1,38,72.9,28.2,72.9z"/>
	<path id="Stroke-3" class="st2" d="M27.8,55.6c0,3.2-2.6,5.8-5.8,5.8c-2.5,0-4.6-1.6-5.4-3.8"/>
	<path id="Stroke-5" class="st2" d="M39,57.6c-0.8,2.2-2.9,3.8-5.4,3.8c-3.2,0-5.8-2.6-5.8-5.8"/>
	<path id="Fill-1" d="M33.1,51.5c0,1.8-2.4,4.8-5.3,4.8c-2.9,0-5.3-3.1-5.3-4.8c0-1.8,2.4-3.2,5.3-3.2
		C30.7,48.2,33.1,49.7,33.1,51.5"/>
	<path id="Stroke-7" class="st3" d="M13.3,28.5h6.6"/>
	<path id="Stroke-9" class="st3" d="M36.4,28.5H43"/>
	<path id="Fill-13" class="st4" d="M18.3,37.5c0,1.4-1.1,2.5-2.5,2.5s-2.5-1.1-2.5-2.5c0-1.4,1.1-2.5,2.5-2.5S18.3,36.2,18.3,37.5"
		/>
	<path id="Fill-17" class="st4" d="M43,37.5c0,1.4-1.1,2.5-2.5,2.5c-1.4,0-2.5-1.1-2.5-2.5c0-1.4,1.1-2.5,2.5-2.5
		C41.9,35.1,43,36.2,43,37.5"/>
	<path id="Stroke-21_1_" class="st5" d="M54.5,7.1c0-2.7-2.2-4.9-4.9-4.9c-1.3,0-2.4,0.5-3.3,1.3L38,12c0,0-3.3-1.6-9.9-1.6
		c-6.6,0-9.9,1.6-9.9,1.6l-8.2-8.6C9.2,2.6,8,2.2,6.8,2.2C4,2.2,1.8,4.4,1.8,7.1v37.9c0,7.7,13.2,28,26.3,28
		c13.2,0,26.3-20.3,26.3-28V7.1z"/>
</g>
</svg>
