<?xml version="1.0" encoding="utf-8"?>
<!-- Generator: Adobe Illustrator 21.0.0, SVG Export Plug-In . SVG Version: 6.00 Build 0)  -->
<svg version="1.1" id="Layer_1" xmlns="http://www.w3.org/2000/svg" xmlns:xlink="http://www.w3.org/1999/xlink" x="0px" y="0px"
	 viewBox="0 0 41 45" style="enable-background:new 0 0 41 45;" xml:space="preserve">
<style type="text/css">
	.st0{fill:#FFC97E;stroke:#3C3C3C;stroke-width:2.5;stroke-linecap:round;stroke-linejoin:round;}
	.st1{fill:none;stroke:#000000;stroke-linecap:round;}
	.st2{fill:#FF9F91;}
</style>
<title>Icons / 70px / Raza-pequena / Color</title>
<desc>Created with Sketch.</desc>
<g id="Group-3">
	<path id="Stroke-47" class="st0" d="M39.5,14.1c0-3.7-1.2-12.5-5.3-12.5c-2.4,0-8.5,7.2-10.6,9.8c-1-0.2-2-0.3-3.1-0.3
		s-2.1,0.1-3.1,0.3c-2-2.5-8.1-9.7-10.5-9.7c-4.2,0-5.3,8.8-5.3,12.5c0,4.3,1.1,9.3,3,12.7c0,0.1,0,0.3,0,0.4c0,8.8,7.2,16,16,16
		s16-7.2,16-16c0-0.1,0-0.3,0-0.4C38.4,23.4,39.5,18.5,39.5,14.1z"/>
	<path id="Stroke-49" class="st1" d="M20.5,34.8c0,1.4-1.1,2.5-2.5,2.5c-1.1,0-2-0.7-2.4-1.7"/>
	<path id="Stroke-51" class="st1" d="M25.4,35.6c-0.3,1-1.3,1.7-2.4,1.7c-1.4,0-2.5-1.1-2.5-2.5"/>
	<path id="Fill-53" d="M23.6,32.1c0,1-1.4,2.8-3.1,2.8s-3.1-1.8-3.1-2.8s1.4-1.9,3.1-1.9C22.2,30.2,23.6,31,23.6,32.1"/>
	<path id="Stroke-55" class="st1" d="M15.1,27.8c-0.4-0.7-1.2-1.2-2-1.2c-0.9,0-1.6,0.5-2,1.2"/>
	<path id="Stroke-57" class="st1" d="M30,27.8c-0.4-0.7-1.2-1.2-2-1.2c-0.9,0-1.6,0.5-2,1.2"/>
	<path id="Stroke-59" class="st2" d="M7.5,7.6L7.5,7.6c-0.8,2-1.2,4.5-1.2,7.1c0,1.9,0.2,3.8,0.7,5.4c1.7-3,4.4-5.3,7.6-6.7L7.5,7.6
		z"/>
	<path id="Stroke-61" class="st2" d="M33.6,7.6L33.6,7.6c0.8,2,1.2,4.5,1.2,7.1c0,1.9-0.2,3.8-0.7,5.4c-1.7-3-4.4-5.3-7.6-6.7
		L33.6,7.6z"/>
</g>
</svg>
